<svg xmlns="http://www.w3.org/2000/svg" xmlns:xlink="http://www.w3.org/1999/xlink" width="500" zoomAndPan="magnify" viewBox="0 0 375 374.999991" height="500" preserveAspectRatio="xMidYMid meet" version="1.0"><defs><g/></defs><g fill="rgb(100%, 100%, 100%)" fill-opacity="1"><g transform="translate(84.246993, 308.341329)"><g><path d="M 122.84375 -189 C 123.3125 -190.394531 123.546875 -192.257812 123.546875 -194.59375 C 123.546875 -198.332031 122.550781 -201.367188 120.5625 -203.703125 C 118.582031 -206.035156 115.492188 -208.601562 111.296875 -211.40625 C 107.796875 -213.96875 105.285156 -216.179688 103.765625 -218.046875 C 102.253906 -219.910156 101.847656 -222.128906 102.546875 -224.703125 C 103.242188 -227.960938 104.992188 -230.175781 107.796875 -231.34375 C 110.597656 -232.507812 115.03125 -233.09375 121.09375 -233.09375 L 220.5 -233.09375 C 225.394531 -233.09375 229.1875 -232.273438 231.875 -230.640625 C 234.5625 -229.015625 235.90625 -226.914062 235.90625 -224.34375 C 235.90625 -223.175781 235.550781 -221.660156 234.84375 -219.796875 C 234.144531 -218.160156 233.15625 -216.703125 231.875 -215.421875 C 230.59375 -214.140625 229.425781 -213.207031 228.375 -212.625 C 227.320312 -212.039062 226.5625 -211.515625 226.09375 -211.046875 C 222.363281 -208.953125 219.332031 -206.617188 217 -204.046875 C 214.664062 -201.484375 212.679688 -197.519531 211.046875 -192.15625 L 176.75 -71.046875 C 169.75 -46.316406 157.847656 -27.941406 141.046875 -15.921875 C 124.242188 -3.910156 102.425781 2.09375 75.59375 2.09375 C 57.632812 2.09375 42.410156 -0.53125 29.921875 -5.78125 C 17.441406 -11.03125 8.050781 -18.085938 1.75 -26.953125 C -4.550781 -35.816406 -7.703125 -45.5 -7.703125 -56 C -7.703125 -61.132812 -7 -66.148438 -5.59375 -71.046875 C -2.5625 -81.546875 2.625 -89.476562 9.96875 -94.84375 C 17.320312 -100.21875 25.550781 -102.90625 34.65625 -102.90625 C 45.15625 -102.90625 53.203125 -99.753906 58.796875 -93.453125 C 64.398438 -87.148438 67.203125 -79.097656 67.203125 -69.296875 C 67.203125 -64.398438 66.5 -59.5 65.09375 -54.59375 C 62.300781 -44.800781 57.050781 -37.570312 49.34375 -32.90625 C 53.082031 -30.570312 57.398438 -29.40625 62.296875 -29.40625 C 67.203125 -29.40625 71.519531 -31.851562 75.25 -36.75 C 78.976562 -41.644531 82.128906 -48.53125 84.703125 -57.40625 Z M 122.84375 -189 "/></g></g></g><path fill="rgb(0%, 0%, 0%)" d="M 56.140625 170.535156 L 318.589844 170.535156 L 318.589844 204.285156 L 56.140625 204.285156 L 56.140625 170.535156 " fill-opacity="1" fill-rule="nonzero"/><g fill="rgb(100%, 100%, 100%)" fill-opacity="1"><g transform="translate(118.113659, 192.113279)"><g><path d="M -0.140625 3.125 L -0.140625 3 L -0.03125 3 C 0.34375 3 0.660156 2.925781 0.921875 2.78125 C 1.179688 2.632812 1.378906 2.382812 1.515625 2.03125 C 1.660156 1.6875 1.734375 1.207031 1.734375 0.59375 L 1.734375 -8.28125 C 1.734375 -8.875 1.378906 -9.171875 0.671875 -9.171875 L 0.5 -9.171875 L 0.5 -9.296875 L 4.28125 -9.296875 L 4.28125 -9.171875 L 4.125 -9.171875 C 3.40625 -9.171875 3.046875 -8.859375 3.046875 -8.234375 L 3.046875 0.109375 C 3.046875 0.890625 2.910156 1.5 2.640625 1.9375 C 2.378906 2.375 2.023438 2.679688 1.578125 2.859375 C 1.128906 3.035156 0.628906 3.125 0.078125 3.125 Z M -0.140625 3.125 "/></g></g></g><g fill="rgb(100%, 100%, 100%)" fill-opacity="1"><g transform="translate(127.654889, 192.113279)"><g><path d="M 4.828125 0.125 C 3.910156 0.125 3.144531 -0.0703125 2.53125 -0.46875 C 1.925781 -0.863281 1.472656 -1.421875 1.171875 -2.140625 C 0.878906 -2.867188 0.734375 -3.710938 0.734375 -4.671875 C 0.734375 -5.640625 0.878906 -6.476562 1.171875 -7.1875 C 1.472656 -7.90625 1.929688 -8.460938 2.546875 -8.859375 C 3.160156 -9.253906 3.925781 -9.453125 4.84375 -9.453125 C 5.71875 -9.453125 6.457031 -9.253906 7.0625 -8.859375 C 7.664062 -8.460938 8.125 -7.90625 8.4375 -7.1875 C 8.757812 -6.46875 8.921875 -5.628906 8.921875 -4.671875 C 8.921875 -3.703125 8.757812 -2.859375 8.4375 -2.140625 C 8.125 -1.421875 7.664062 -0.863281 7.0625 -0.46875 C 6.457031 -0.0703125 5.710938 0.125 4.828125 0.125 Z M 4.828125 0 C 5.765625 0 6.441406 -0.367188 6.859375 -1.109375 C 7.273438 -1.847656 7.484375 -3.035156 7.484375 -4.671875 C 7.484375 -6.296875 7.273438 -7.472656 6.859375 -8.203125 C 6.441406 -8.941406 5.769531 -9.3125 4.84375 -9.3125 C 3.914062 -9.3125 3.238281 -8.941406 2.8125 -8.203125 C 2.382812 -7.472656 2.171875 -6.296875 2.171875 -4.671875 C 2.171875 -3.035156 2.378906 -1.847656 2.796875 -1.109375 C 3.222656 -0.367188 3.898438 0 4.828125 0 Z M 4.828125 0 "/></g></g></g><g fill="rgb(100%, 100%, 100%)" fill-opacity="1"><g transform="translate(142.213151, 192.113279)"><g><path d="M 0.515625 0 L 0.515625 -0.125 L 0.671875 -0.125 C 1.390625 -0.125 1.75 -0.4375 1.75 -1.0625 L 1.75 -8.28125 C 1.75 -8.875 1.390625 -9.171875 0.671875 -9.171875 L 0.515625 -9.171875 L 0.515625 -9.296875 L 4.296875 -9.296875 L 4.296875 -9.171875 L 4.125 -9.171875 C 3.414062 -9.171875 3.0625 -8.859375 3.0625 -8.234375 L 3.0625 -4.921875 L 7.28125 -4.921875 L 7.28125 -8.234375 C 7.28125 -8.859375 6.925781 -9.171875 6.21875 -9.171875 L 6.046875 -9.171875 L 6.046875 -9.296875 L 9.84375 -9.296875 L 9.84375 -9.171875 L 9.671875 -9.171875 C 8.953125 -9.171875 8.59375 -8.875 8.59375 -8.28125 L 8.59375 -1.0625 C 8.59375 -0.4375 8.953125 -0.125 9.671875 -0.125 L 9.84375 -0.125 L 9.84375 0 L 6.046875 0 L 6.046875 -0.125 L 6.21875 -0.125 C 6.925781 -0.125 7.28125 -0.4375 7.28125 -1.0625 L 7.28125 -4.796875 L 3.0625 -4.796875 L 3.0625 -1.0625 C 3.0625 -0.4375 3.414062 -0.125 4.125 -0.125 L 4.296875 -0.125 L 4.296875 0 Z M 0.515625 0 "/></g></g></g><g fill="rgb(100%, 100%, 100%)" fill-opacity="1"><g transform="translate(157.436007, 192.113279)"><g><path d="M 0.5 0 L 0.5 -0.125 L 0.875 -0.125 C 1.582031 -0.125 1.9375 -0.4375 1.9375 -1.0625 L 1.9375 -8.28125 C 1.9375 -8.875 1.582031 -9.171875 0.875 -9.171875 L 0.5 -9.171875 L 0.5 -9.296875 L 3.03125 -9.296875 L 8 -1.859375 L 8 -8.234375 C 8 -8.859375 7.644531 -9.171875 6.9375 -9.171875 L 6.5625 -9.171875 L 6.5625 -9.296875 L 9.578125 -9.296875 L 9.578125 -9.171875 L 9.203125 -9.171875 C 8.484375 -9.171875 8.125 -8.859375 8.125 -8.234375 L 8.125 0 L 7.734375 0 L 2.078125 -8.5 L 2.078125 -1.0625 C 2.078125 -0.4375 2.429688 -0.125 3.140625 -0.125 L 3.5 -0.125 L 3.5 0 Z M 0.5 0 "/></g></g></g><g fill="rgb(100%, 100%, 100%)" fill-opacity="1"><g transform="translate(172.267932, 192.113279)"><g/></g></g><g fill="rgb(100%, 100%, 100%)" fill-opacity="1"><g transform="translate(180.089047, 192.113279)"><g><path d="M 0 0 L 0 -0.125 L 0.375 -0.125 C 0.65625 -0.125 0.875 -0.195312 1.03125 -0.34375 C 1.195312 -0.5 1.34375 -0.765625 1.46875 -1.140625 L 4.3125 -9.296875 L 4.984375 -9.296875 L 8.25 -0.828125 C 8.34375 -0.566406 8.445312 -0.382812 8.5625 -0.28125 C 8.675781 -0.175781 8.828125 -0.125 9.015625 -0.125 L 9.1875 -0.125 L 9.1875 0 L 5.609375 0 L 5.609375 -0.125 L 5.90625 -0.125 C 6.226562 -0.125 6.460938 -0.160156 6.609375 -0.234375 C 6.765625 -0.316406 6.84375 -0.460938 6.84375 -0.671875 C 6.84375 -0.734375 6.832031 -0.8125 6.8125 -0.90625 C 6.800781 -1.007812 6.769531 -1.117188 6.71875 -1.234375 L 5.921875 -3.375 L 2.390625 -3.375 L 1.6875 -1.328125 C 1.601562 -1.097656 1.5625 -0.910156 1.5625 -0.765625 C 1.5625 -0.535156 1.664062 -0.367188 1.875 -0.265625 C 2.082031 -0.171875 2.414062 -0.125 2.875 -0.125 L 3.171875 -0.125 L 3.171875 0 Z M 2.4375 -3.5 L 5.875 -3.5 L 4.921875 -6.046875 C 4.585938 -6.921875 4.320312 -7.703125 4.125 -8.390625 C 4.03125 -8.128906 3.953125 -7.898438 3.890625 -7.703125 C 3.828125 -7.503906 3.757812 -7.289062 3.6875 -7.0625 C 3.613281 -6.84375 3.519531 -6.578125 3.40625 -6.265625 Z M 2.4375 -3.5 "/></g></g></g><g fill="rgb(100%, 100%, 100%)" fill-opacity="1"><g transform="translate(194.165159, 192.113279)"><g><path d="M 0.5 0 L 0.5 -0.125 L 0.875 -0.125 C 1.582031 -0.125 1.9375 -0.4375 1.9375 -1.0625 L 1.9375 -8.28125 C 1.9375 -8.875 1.582031 -9.171875 0.875 -9.171875 L 0.5 -9.171875 L 0.5 -9.296875 L 3.03125 -9.296875 L 8 -1.859375 L 8 -8.234375 C 8 -8.859375 7.644531 -9.171875 6.9375 -9.171875 L 6.5625 -9.171875 L 6.5625 -9.296875 L 9.578125 -9.296875 L 9.578125 -9.171875 L 9.203125 -9.171875 C 8.484375 -9.171875 8.125 -8.859375 8.125 -8.234375 L 8.125 0 L 7.734375 0 L 2.078125 -8.5 L 2.078125 -1.0625 C 2.078125 -0.4375 2.429688 -0.125 3.140625 -0.125 L 3.5 -0.125 L 3.5 0 Z M 0.5 0 "/></g></g></g><g fill="rgb(100%, 100%, 100%)" fill-opacity="1"><g transform="translate(208.997084, 192.113279)"><g><path d="M 0.5 0 L 0.5 -0.125 L 0.671875 -0.125 C 1.378906 -0.125 1.734375 -0.4375 1.734375 -1.0625 L 1.734375 -8.28125 C 1.734375 -8.875 1.378906 -9.171875 0.671875 -9.171875 L 0.5 -9.171875 L 0.5 -9.296875 L 4.484375 -9.296875 C 5.816406 -9.296875 6.859375 -8.890625 7.609375 -8.078125 C 8.359375 -7.273438 8.734375 -6.140625 8.734375 -4.671875 C 8.734375 -3.710938 8.570312 -2.882812 8.25 -2.1875 C 7.9375 -1.488281 7.460938 -0.945312 6.828125 -0.5625 C 6.203125 -0.1875 5.421875 0 4.484375 0 Z M 3.046875 -0.125 L 4.1875 -0.125 C 5.269531 -0.125 6.054688 -0.484375 6.546875 -1.203125 C 7.035156 -1.921875 7.28125 -3.078125 7.28125 -4.671875 C 7.28125 -6.242188 7.035156 -7.382812 6.546875 -8.09375 C 6.054688 -8.8125 5.273438 -9.171875 4.203125 -9.171875 L 3.046875 -9.171875 Z M 3.046875 -0.125 "/></g></g></g><g fill="rgb(100%, 100%, 100%)" fill-opacity="1"><g transform="translate(223.359882, 192.113279)"><g><path d="M 0.5 0 L 0.5 -0.125 L 0.671875 -0.125 C 1.378906 -0.125 1.734375 -0.4375 1.734375 -1.0625 L 1.734375 -8.28125 C 1.734375 -8.875 1.378906 -9.171875 0.671875 -9.171875 L 0.5 -9.171875 L 0.5 -9.296875 L 4 -9.296875 C 5.125 -9.296875 5.960938 -9.085938 6.515625 -8.671875 C 7.066406 -8.253906 7.34375 -7.65625 7.34375 -6.875 C 7.34375 -6.351562 7.238281 -5.929688 7.03125 -5.609375 C 6.832031 -5.296875 6.570312 -5.046875 6.25 -4.859375 C 5.9375 -4.679688 5.613281 -4.539062 5.28125 -4.4375 L 7.109375 -1.578125 C 7.472656 -1.023438 7.757812 -0.644531 7.96875 -0.4375 C 8.175781 -0.226562 8.382812 -0.125 8.59375 -0.125 L 8.625 -0.125 L 8.625 0 L 8.4375 0 C 8.03125 0 7.691406 -0.015625 7.421875 -0.046875 C 7.160156 -0.078125 6.941406 -0.128906 6.765625 -0.203125 C 6.597656 -0.285156 6.445312 -0.398438 6.3125 -0.546875 C 6.175781 -0.703125 6.03125 -0.898438 5.875 -1.140625 L 3.875 -4.34375 L 3.046875 -4.34375 L 3.046875 -1.0625 C 3.046875 -0.4375 3.40625 -0.125 4.125 -0.125 L 4.28125 -0.125 L 4.28125 0 Z M 3.046875 -4.46875 L 3.96875 -4.46875 C 4.6875 -4.46875 5.195312 -4.644531 5.5 -5 C 5.800781 -5.351562 5.953125 -5.945312 5.953125 -6.78125 C 5.953125 -7.632812 5.796875 -8.242188 5.484375 -8.609375 C 5.171875 -8.984375 4.65625 -9.171875 3.9375 -9.171875 L 3.046875 -9.171875 Z M 3.046875 -4.46875 "/></g></g></g><g fill="rgb(100%, 100%, 100%)" fill-opacity="1"><g transform="translate(236.797465, 192.113279)"><g><path d="M 0.5 0 L 0.5 -0.125 L 0.671875 -0.125 C 1.378906 -0.125 1.734375 -0.4375 1.734375 -1.0625 L 1.734375 -8.28125 C 1.734375 -8.875 1.378906 -9.171875 0.671875 -9.171875 L 0.5 -9.171875 L 0.5 -9.296875 L 7.046875 -9.296875 L 7.125 -7.03125 L 7 -7.03125 L 6.96875 -7.453125 C 6.925781 -8.109375 6.773438 -8.554688 6.515625 -8.796875 C 6.253906 -9.046875 5.796875 -9.171875 5.140625 -9.171875 L 3.046875 -9.171875 L 3.046875 -4.9375 L 6.3125 -4.9375 L 6.3125 -4.8125 L 3.046875 -4.8125 L 3.046875 -0.125 L 5.453125 -0.125 C 5.921875 -0.125 6.289062 -0.175781 6.5625 -0.28125 C 6.84375 -0.382812 7.046875 -0.5625 7.171875 -0.8125 C 7.304688 -1.070312 7.390625 -1.414062 7.421875 -1.84375 L 7.4375 -2.28125 L 7.578125 -2.28125 L 7.484375 0 Z M 0.5 0 "/></g></g></g><g fill="rgb(100%, 100%, 100%)" fill-opacity="1"><g transform="translate(249.805003, 192.113279)"><g><path d="M 3.359375 0.125 C 2.503906 0.125 1.832031 -0.046875 1.34375 -0.390625 C 0.863281 -0.734375 0.625 -1.160156 0.625 -1.671875 C 0.625 -2.273438 0.9375 -2.578125 1.5625 -2.578125 C 1.570312 -1.722656 1.726562 -1.078125 2.03125 -0.640625 C 2.34375 -0.210938 2.816406 0 3.453125 0 C 4.003906 0 4.453125 -0.160156 4.796875 -0.484375 C 5.140625 -0.804688 5.3125 -1.285156 5.3125 -1.921875 C 5.3125 -2.316406 5.238281 -2.632812 5.09375 -2.875 C 4.957031 -3.125 4.726562 -3.34375 4.40625 -3.53125 C 4.09375 -3.726562 3.679688 -3.945312 3.171875 -4.1875 C 2.898438 -4.3125 2.625 -4.445312 2.34375 -4.59375 C 2.0625 -4.75 1.800781 -4.929688 1.5625 -5.140625 C 1.320312 -5.359375 1.128906 -5.617188 0.984375 -5.921875 C 0.835938 -6.234375 0.765625 -6.601562 0.765625 -7.03125 C 0.765625 -7.8125 1.015625 -8.40625 1.515625 -8.8125 C 2.015625 -9.226562 2.679688 -9.4375 3.515625 -9.4375 C 4.023438 -9.4375 4.46875 -9.363281 4.84375 -9.21875 C 5.226562 -9.082031 5.523438 -8.898438 5.734375 -8.671875 C 5.953125 -8.453125 6.0625 -8.207031 6.0625 -7.9375 C 6.0625 -7.6875 5.960938 -7.488281 5.765625 -7.34375 C 5.578125 -7.195312 5.332031 -7.125 5.03125 -7.125 C 5.03125 -7.84375 4.910156 -8.382812 4.671875 -8.75 C 4.441406 -9.113281 4.050781 -9.296875 3.5 -9.296875 C 3 -9.296875 2.597656 -9.144531 2.296875 -8.84375 C 1.992188 -8.539062 1.84375 -8.09375 1.84375 -7.5 C 1.84375 -7.082031 1.921875 -6.738281 2.078125 -6.46875 C 2.234375 -6.207031 2.46875 -5.984375 2.78125 -5.796875 C 3.09375 -5.617188 3.492188 -5.414062 3.984375 -5.1875 C 4.421875 -4.988281 4.820312 -4.78125 5.1875 -4.5625 C 5.5625 -4.34375 5.859375 -4.066406 6.078125 -3.734375 C 6.304688 -3.398438 6.421875 -2.96875 6.421875 -2.4375 C 6.421875 -1.644531 6.15625 -1.019531 5.625 -0.5625 C 5.09375 -0.101562 4.335938 0.125 3.359375 0.125 Z M 3.359375 0.125 "/></g></g></g></svg>